<mxfile host="app.diagrams.net" agent="Mozilla/5.0 (Windows NT 10.0; Win64; x64) AppleWebKit/537.36 (KHTML, like Gecko) Chrome/136.0.0.0 Safari/537.36" version="27.0.1">
  <diagram name="Halaman-1" id="R2WrA_b4PZg_kvOdXJxK">
    <mxGraphModel dx="707" dy="343" grid="1" gridSize="10" guides="1" tooltips="1" connect="1" arrows="1" fold="1" page="1" pageScale="1" pageWidth="827" pageHeight="1169" math="0" shadow="0">
      <root>
        <mxCell id="0" />
        <mxCell id="1" parent="0" />
        <mxCell id="nbBiCtLTRZ0dwVBhAd1j-1" value="Pegawai" style="rounded=0;whiteSpace=wrap;html=1;" vertex="1" parent="1">
          <mxGeometry x="80" y="480" width="80" height="40" as="geometry" />
        </mxCell>
        <mxCell id="nbBiCtLTRZ0dwVBhAd1j-2" value="Pemilik" style="rounded=0;whiteSpace=wrap;html=1;" vertex="1" parent="1">
          <mxGeometry x="80" y="360" width="80" height="40" as="geometry" />
        </mxCell>
        <mxCell id="nbBiCtLTRZ0dwVBhAd1j-3" value="Member" style="rounded=0;whiteSpace=wrap;html=1;" vertex="1" parent="1">
          <mxGeometry x="80" y="240" width="80" height="40" as="geometry" />
        </mxCell>
        <mxCell id="nbBiCtLTRZ0dwVBhAd1j-4" value="SI&lt;div&gt;Laporan&lt;/div&gt;" style="ellipse;whiteSpace=wrap;html=1;" vertex="1" parent="1">
          <mxGeometry x="317.5" y="360" width="80" height="80" as="geometry" />
        </mxCell>
        <mxCell id="nbBiCtLTRZ0dwVBhAd1j-5" value="SI&lt;div&gt;Transaksi&lt;/div&gt;" style="ellipse;whiteSpace=wrap;html=1;" vertex="1" parent="1">
          <mxGeometry x="315" y="480" width="85" height="80" as="geometry" />
        </mxCell>
        <mxCell id="nbBiCtLTRZ0dwVBhAd1j-6" value="SI&lt;div&gt;Booking&lt;/div&gt;" style="ellipse;whiteSpace=wrap;html=1;" vertex="1" parent="1">
          <mxGeometry x="320" y="240" width="80" height="80" as="geometry" />
        </mxCell>
        <mxCell id="nbBiCtLTRZ0dwVBhAd1j-7" value="Booking" style="rounded=0;whiteSpace=wrap;html=1;" vertex="1" parent="1">
          <mxGeometry x="600" y="240" width="80" height="40" as="geometry" />
        </mxCell>
        <mxCell id="nbBiCtLTRZ0dwVBhAd1j-8" value="D1" style="rounded=0;whiteSpace=wrap;html=1;" vertex="1" parent="1">
          <mxGeometry x="560" y="240" width="40" height="40" as="geometry" />
        </mxCell>
        <mxCell id="nbBiCtLTRZ0dwVBhAd1j-9" value="Nota" style="rounded=0;whiteSpace=wrap;html=1;" vertex="1" parent="1">
          <mxGeometry x="600" y="480" width="80" height="40" as="geometry" />
        </mxCell>
        <mxCell id="nbBiCtLTRZ0dwVBhAd1j-10" value="D2" style="rounded=0;whiteSpace=wrap;html=1;" vertex="1" parent="1">
          <mxGeometry x="560" y="480" width="40" height="40" as="geometry" />
        </mxCell>
      </root>
    </mxGraphModel>
  </diagram>
</mxfile>
